<svg version="1.1" id="Layer_1" xmlns="http://www.w3.org/2000/svg" xmlns:xlink="http://www.w3.org/1999/xlink" x="0px" y="0px"
	 width="100%" viewBox="0 0 736 352" enable-background="new 0 0 736 352" xml:space="preserve">
<path fill="#000000" opacity="1.000000" stroke="none" 
	d="
M709.895508,166.141022 
	C708.959106,186.696991 709.299011,206.838455 709.058960,226.971970 
	C708.932373,237.585159 707.608215,247.947891 701.562622,257.060638 
	C694.756958,267.319153 686.318237,276.169769 674.746582,280.611298 
	C667.496582,283.394073 659.431580,284.824005 651.639893,285.278748 
	C629.537720,286.568542 607.398743,286.125397 585.340759,284.022430 
	C579.397278,283.455780 573.513000,282.124969 567.650024,280.910675 
	C563.806213,280.114532 562.710327,275.813202 559.369873,274.022247 
	C554.394714,271.354919 550.785461,266.848236 546.682190,263.012939 
	C543.892029,267.290894 539.820801,265.587280 535.340210,264.766449 
	C535.512878,271.372437 530.046509,272.291046 525.716492,273.839996 
	C526.252441,276.548706 529.251282,275.310333 529.428467,277.645264 
	C528.056580,279.660767 525.562256,279.289459 523.642151,279.746887 
	C513.331238,282.203186 503.026611,285.340027 492.546936,286.248993 
	C482.207214,287.145874 471.750305,288.023590 461.277344,287.615387 
	C455.191223,287.378174 449.059479,287.789764 442.978973,287.964203 
	C434.908478,288.195740 427.116516,286.649170 419.216736,285.925568 
	C412.890961,285.346130 406.597382,285.389008 400.284302,285.244080 
	C398.503754,285.203217 396.601349,285.677551 394.646301,284.196198 
	C396.709747,280.535950 393.953217,279.295776 391.504669,277.038727 
	C388.221924,274.012726 385.699127,270.110199 382.475555,266.848907 
	C378.347717,262.672729 377.414520,262.621826 373.837372,267.543091 
	C371.019592,271.419678 368.135559,275.279999 364.946472,278.848633 
	C356.165955,288.674164 343.761475,289.765350 331.997589,290.936005 
	C317.829712,292.345917 303.474854,293.773499 289.247253,292.576477 
	C273.819183,291.278442 258.350800,293.131409 242.976379,291.139282 
	C237.415283,290.418671 231.801514,291.721375 226.159790,289.781433 
	C220.675720,287.895691 215.557404,285.343506 210.382584,282.886505 
	C208.079208,281.792877 206.227554,281.068542 203.953903,282.680359 
	C192.753265,290.620422 179.965134,292.959564 166.592438,293.014069 
	C143.439377,293.108429 120.271568,293.609344 97.138901,292.939453 
	C85.938957,292.615143 74.550049,292.571716 63.560650,288.944672 
	C48.694656,284.038116 40.553356,273.160492 35.795013,259.140564 
	C30.616850,243.883698 31.781466,227.923523 31.275110,212.185989 
	C30.902086,200.592331 30.446095,188.942200 31.168434,177.388596 
	C31.937807,165.082687 29.893591,152.370270 34.529289,140.524704 
	C44.257381,115.666603 56.130848,104.961357 84.285843,102.555382 
	C99.061150,101.292763 113.831657,100.820816 128.592239,100.301727 
	C146.005280,99.689362 163.555481,98.174049 180.865494,101.356094 
	C189.668076,102.974236 198.391861,105.530365 206.048370,110.453400 
	C209.988403,112.986794 213.801071,112.997589 217.154358,110.371666 
	C226.521042,103.036774 237.839783,102.170891 248.779114,101.155083 
	C276.448151,98.585793 304.215881,97.246964 332.028107,97.895966 
	C342.028564,98.129311 351.930542,99.043571 361.108551,103.755188 
	C365.000610,105.753212 367.419067,104.429916 369.053772,99.904800 
	C371.304840,93.673645 373.199310,87.434380 377.885437,82.258896 
	C386.791138,72.423248 397.382324,66.015335 410.517731,63.798450 
	C427.816376,60.878933 445.270172,60.717297 462.728119,60.775604 
	C481.841492,60.839436 500.567291,63.040863 518.113098,71.439003 
	C525.000916,74.735802 530.496887,79.770027 536.000122,84.866501 
	C537.053467,85.842079 537.892883,87.250130 539.861206,87.472473 
	C543.932251,83.709091 546.984436,78.858795 551.856873,75.369705 
	C559.123962,70.165848 567.276245,68.474960 575.464050,66.750908 
	C596.260376,62.371979 617.206726,64.685074 638.125488,66.023666 
	C649.806152,66.771118 661.249451,68.380859 672.156250,72.863014 
	C684.931335,78.112930 695.014648,86.422791 700.926270,99.066299 
	C707.456421,113.032814 709.653992,127.887390 709.311951,143.247391 
	C709.145325,150.726547 709.675781,158.221191 709.895508,166.141022 
M386.084473,261.400085 
	C394.950653,269.611328 405.402100,275.239624 417.020416,277.894714 
	C432.003510,281.318756 447.410370,280.723877 462.697052,280.585602 
	C469.004852,280.528564 475.326721,279.676086 481.611603,279.933258 
	C494.348175,280.454437 506.176880,277.426056 516.780396,270.716187 
	C527.269714,264.078583 536.180969,255.693512 536.775208,242.063904 
	C537.194031,232.456558 537.102539,222.819839 537.008240,213.198502 
	C536.657837,177.465408 536.413879,141.730728 537.865356,106.018211 
	C538.145264,99.131813 535.944336,93.935127 531.272827,89.057190 
	C516.932068,74.082848 498.684967,69.329414 478.893829,68.266365 
	C469.437561,67.758430 460.022308,67.403030 450.508667,67.764191 
	C434.246796,68.381531 418.053955,67.798836 402.234314,73.257645 
	C387.369720,78.386887 373.836884,95.588654 373.183044,111.178246 
	C372.199951,134.619659 371.582245,158.070984 373.414978,181.458908 
	C374.195831,191.423752 372.258514,201.371140 374.108673,211.267593 
	C374.559662,213.680069 375.064026,216.048752 374.782349,218.652954 
	C373.118683,234.033340 375.290039,248.513397 386.084473,261.400085 
M541.546448,213.909485 
	C540.241089,218.448944 542.720825,222.670441 542.572266,227.226242 
	C542.311157,235.235291 543.771667,243.253128 547.449951,250.425705 
	C556.573547,268.216797 572.457458,275.723175 591.409180,277.742767 
	C598.168823,278.463104 605.036377,278.074951 611.862183,278.452423 
	C633.088013,279.626343 654.466064,281.403320 674.594666,272.020660 
	C689.728699,264.966125 699.729614,253.514771 701.599976,236.599594 
	C704.309692,212.093613 702.735474,187.411179 703.302856,162.815979 
	C703.538635,152.596741 703.223755,142.207565 702.695190,131.906265 
	C701.856384,115.560486 698.834656,100.062592 685.820129,88.531464 
	C673.732422,77.821487 659.220642,72.955544 643.352173,72.015305 
	C626.264404,71.002823 609.167542,70.382515 592.026672,71.152756 
	C580.898254,71.652809 570.136780,73.643402 560.137512,78.368546 
	C553.310608,81.594559 547.267944,86.500465 545.074768,94.166862 
	C543.721924,98.895531 543.339478,104.011284 543.231934,108.968674 
	C542.597900,138.193817 541.370789,167.405930 541.591492,196.654694 
	C541.632629,202.107269 542.337952,207.591736 541.546448,213.909485 
M273.594299,106.048561 
	C263.860931,106.776138 254.104874,107.288643 244.402542,108.310959 
	C238.468674,108.936203 232.579224,110.265091 227.065353,112.698959 
	C212.026993,119.337044 205.644318,132.394592 203.416367,147.368103 
	C200.181168,169.111023 201.212006,191.169312 200.522552,213.091980 
	C200.199402,223.367386 201.391312,233.687668 201.136322,243.968765 
	C200.881073,254.259506 204.150955,263.198456 209.279388,271.802734 
	C211.927780,276.246094 215.961365,278.979675 220.513321,280.434784 
	C230.398056,283.594574 240.786621,283.839661 251.063217,284.483215 
	C260.986084,285.104645 270.865997,283.553925 280.831238,284.074219 
	C302.573822,285.209351 324.458862,286.646698 345.902313,281.716644 
	C361.853333,278.049286 370.507965,264.505341 370.525116,250.203079 
	C370.540314,237.546616 368.620178,224.855103 367.029785,212.245239 
	C366.375122,207.054855 367.748993,202.069916 367.154083,196.889496 
	C366.239838,188.928940 365.647461,180.840897 365.964417,172.848419 
	C366.608948,156.594604 367.085022,140.364029 365.797668,124.134171 
	C364.914703,113.002518 362.776062,110.434830 352.178558,107.414536 
	C349.953888,106.780502 347.618103,106.394058 345.308960,106.220787 
	C321.711609,104.450027 298.104309,105.048180 273.594299,106.048561 
M63.969009,114.015724 
	C62.279930,116.309074 59.224949,115.635223 57.079903,117.521851 
	C45.386066,127.806938 40.340519,141.062637 39.119385,156.102325 
	C37.825413,172.039154 37.708118,188.017014 38.667660,203.964020 
	C39.575718,219.055389 38.111828,234.203125 40.378296,249.274994 
	C41.985268,259.961243 46.049690,268.702911 54.854877,275.471008 
	C64.446892,282.843872 75.823181,283.101990 86.834198,284.486542 
	C94.912079,285.502319 103.197708,285.440948 111.376320,284.702332 
	C119.723984,283.948486 127.915497,286.262329 136.220779,285.783081 
	C141.188766,285.496460 146.084656,284.659546 151.131912,284.940948 
	C162.631287,285.582214 174.029724,284.250671 185.275696,281.914246 
	C193.671417,280.170013 198.391342,272.158325 196.296127,264.017365 
	C195.802689,262.100098 195.611603,260.098236 195.367996,258.124573 
	C194.169739,248.417099 194.730743,238.745087 195.308441,229.000580 
	C195.897491,219.064804 194.094574,209.148544 195.539124,199.048706 
	C197.220657,187.291962 195.290131,175.312622 196.403778,163.367157 
	C197.559921,150.965881 197.348404,138.503174 202.911316,126.890434 
	C204.887573,122.764931 202.612274,116.387024 198.500870,114.382339 
	C191.630600,111.032440 184.610291,107.526291 176.809967,107.396103 
	C144.223694,106.852226 111.623352,106.642906 79.122200,109.487625 
	C74.190269,109.919312 68.817314,110.373093 63.969009,114.015724 
z"/>
<path fill="#000000" opacity="1.000000" stroke="none" 
	d="
M446.601501,193.267670 
	C440.663757,198.262192 441.245392,202.119720 448.031616,204.611298 
	C453.436554,206.595703 459.203430,206.007477 464.795776,206.558365 
	C468.110199,206.884872 471.398560,207.203690 474.656708,207.874252 
	C484.131226,209.824234 490.667358,222.455811 483.283691,231.800949 
	C477.827911,238.706116 471.173157,241.514938 462.810455,242.334595 
	C453.485992,243.248520 444.208618,242.780609 434.947174,242.178513 
	C427.380249,241.686584 423.681702,236.229523 425.427490,229.313370 
	C426.246155,226.070312 427.645935,224.773010 431.122711,226.622818 
	C437.993439,230.278336 445.284882,231.984100 453.214722,231.231506 
	C457.252258,230.848312 461.357574,232.310532 465.393005,230.197968 
	C468.198944,228.729034 471.006195,227.076889 471.158478,223.931656 
	C471.319641,220.602249 468.225830,219.924805 465.420563,218.837418 
	C459.074829,216.377670 452.330627,216.861969 445.876129,215.406113 
	C441.640839,214.450806 437.489838,213.266342 433.666595,211.272034 
	C428.202118,208.421600 426.205261,203.731354 426.733429,197.602417 
	C427.247925,191.632355 430.414581,187.336258 435.478943,185.185455 
	C447.517273,180.072861 460.157715,179.000809 473.051239,181.423355 
	C473.704712,181.546143 474.360840,181.660965 475.020081,181.745941 
	C484.835327,183.011017 485.998535,184.513855 484.952881,194.596527 
	C484.498260,198.980194 483.369568,199.597229 479.634644,197.233017 
	C469.371582,190.736526 458.324738,190.703125 446.601501,193.267670 
z"/>
<path fill="#000000" opacity="1.000000" stroke="none" 
	d="
M421.178772,100.464462 
	C425.587402,89.379677 433.774780,83.822678 444.916931,81.803795 
	C456.256866,79.749077 467.406067,80.985268 478.533447,83.093597 
	C482.355377,83.817749 484.170105,90.150902 481.599945,93.172386 
	C480.405212,94.576958 479.054779,94.419395 477.569427,93.665611 
	C466.323639,87.958572 454.916290,90.581245 443.558838,93.149208 
	C438.772064,94.231522 436.582001,98.057823 436.802979,102.422485 
	C437.012268,106.556328 439.887512,108.976944 444.022400,110.920357 
	C452.338043,114.828720 460.920410,113.777542 469.484039,114.038551 
	C472.029297,114.116119 474.415314,113.344170 476.696808,112.267235 
	C478.258057,111.530281 479.735748,109.626831 481.560791,111.485474 
	C483.318970,113.276062 483.369843,115.748108 483.321686,118.070168 
	C483.269379,120.593445 481.157837,121.349434 479.216858,121.754181 
	C471.740417,123.313225 464.154755,124.388527 456.533691,123.600021 
	C449.462677,122.868423 442.343201,122.641022 435.440338,120.197159 
	C426.079834,116.883217 421.529022,110.526146 421.178772,100.464462 
z"/>
<path fill="#000000" opacity="1.000000" stroke="none" 
	d="
M615.640442,211.593170 
	C622.834778,207.416412 628.965149,202.269928 634.630188,196.784592 
	C641.790894,189.851089 650.019592,189.132843 659.534973,189.943909 
	C658.326721,195.742889 652.947876,196.723297 649.846680,199.832397 
	C647.068542,202.617599 643.140625,204.262283 640.389771,207.067078 
	C632.968994,214.633331 633.037109,219.379791 642.732300,225.512573 
	C648.168396,228.951233 652.494568,233.473816 657.536926,237.227844 
	C658.757202,238.136307 660.123657,238.983749 659.296692,240.842285 
	C658.609436,242.386917 657.808105,243.877365 655.819763,244.009460 
	C649.836975,244.406921 644.041626,245.128540 639.560120,239.256088 
	C635.873291,234.424927 631.122375,230.412903 626.918945,225.966064 
	C624.729126,223.649475 622.880188,220.990005 618.962891,222.629929 
	C614.994873,224.291061 612.882568,227.235611 612.565491,231.379074 
	C612.313660,234.671448 612.271484,238.004288 612.470398,241.298981 
	C612.628296,243.913651 611.628113,245.337585 609.137939,244.928421 
	C606.447571,244.486328 603.889954,244.902359 601.255615,245.080841 
	C597.349487,245.345490 594.901611,243.705780 594.908630,239.353470 
	C594.933105,224.273560 594.390747,209.192932 595.151550,194.111877 
	C595.248779,192.183701 595.703613,190.636627 597.287537,190.023453 
	C601.799805,188.276566 606.462097,189.204376 610.921448,190.262589 
	C612.790833,190.706192 612.948425,192.971283 612.602844,194.980194 
	C611.802612,199.632645 612.934509,204.252258 613.068176,208.892914 
	C613.110168,210.352524 613.510254,211.544174 615.640442,211.593170 
z"/>
<path fill="#000000" opacity="1.000000" stroke="none" 
	d="
M655.418335,94.918182 
	C656.125549,101.596657 656.941101,107.869247 657.133850,114.160927 
	C657.291504,119.306923 654.433899,121.967751 649.670166,122.071777 
	C641.303101,122.254486 640.077271,121.401154 639.411987,114.930740 
	C638.706665,108.071938 638.244202,107.638153 631.133362,107.263275 
	C625.658691,106.974655 620.243469,106.006386 614.721741,106.126259 
	C611.391235,106.198547 609.960938,107.311760 609.872375,110.792763 
	C609.791748,113.964752 610.686218,117.935089 607.209717,119.832497 
	C603.068176,122.092918 598.325073,121.175522 594.039001,120.220352 
	C591.377563,119.627258 591.410034,116.106705 591.250732,113.762192 
	C590.869629,108.150955 590.786255,102.501320 590.939514,96.876900 
	C591.101379,90.932892 593.016174,89.033310 598.180115,88.866684 
	C607.045410,88.580605 609.330811,89.903214 609.995605,96.290344 
	C610.294128,99.159409 611.521484,100.512817 614.298340,100.687859 
	C620.102905,101.053764 625.916138,101.331650 631.706238,101.859688 
	C635.751404,102.228577 638.042847,100.688591 638.584412,96.627029 
	C639.018982,93.367538 640.323608,90.552994 644.074280,90.788826 
	C648.041138,91.038261 653.078125,88.720886 655.418335,94.918182 
z"/>
<path fill="#000000" opacity="1.000000" stroke="none" 
	d="
M673.836304,261.742706 
	C674.771667,259.536652 675.708862,257.555786 677.561707,256.312134 
	C682.945312,252.698593 685.960510,247.174911 689.566589,241.498642 
	C691.080688,245.528336 689.125305,248.556366 687.196594,251.090897 
	C683.670166,255.725143 681.025085,261.701965 673.836304,261.742706 
z"/>
<path fill="#000000" opacity="1.000000" stroke="none" 
	d="
M690.864990,190.011780 
	C690.789856,190.789581 690.302979,191.542892 690.081970,191.162781 
	C687.424255,186.592819 684.900513,181.944946 682.901611,177.008530 
	C688.145935,179.672348 689.384460,184.770493 690.864990,190.011780 
z"/>
<path fill="#000000" opacity="1.000000" stroke="none" 
	d="
M590.214050,268.570374 
	C591.826965,268.962158 593.075562,269.260773 594.324158,269.559357 
	C594.286499,269.986359 594.248779,270.413361 594.211121,270.840363 
	C590.879272,270.649597 587.470947,272.115509 583.877930,269.337402 
	C585.816101,267.148468 587.893127,268.191864 590.214050,268.570374 
z"/>
<path fill="#000000" opacity="1.000000" stroke="none" 
	d="
M559.159058,249.099762 
	C560.779663,251.660355 563.445740,253.117218 564.576538,256.508026 
	C561.005920,255.808334 559.071167,253.799988 557.459045,251.595200 
	C556.537659,250.335129 556.076599,248.552597 559.159058,249.099762 
z"/>
<path fill="#000000" opacity="1.000000" stroke="none" 
	d="
M691.919434,215.429779 
	C691.978271,214.094254 691.868286,213.085098 693.123474,212.047348 
	C694.826355,215.310654 693.976318,218.371765 693.505798,222.236557 
	C691.360229,219.926941 692.200867,217.729019 691.919434,215.429779 
z"/>
<path fill="#000000" opacity="1.000000" stroke="none" 
	d="
M660.663879,164.030396 
	C658.232239,163.339355 655.874939,163.217468 653.715881,161.170319 
	C656.364075,160.429321 658.486206,160.614944 660.469360,161.116547 
	C662.055603,161.517761 663.446960,162.553909 660.663879,164.030396 
z"/>
<path fill="#000000" opacity="1.000000" stroke="none" 
	d="
M693.182739,234.569672 
	C692.295898,235.800720 691.307312,236.271378 691.004089,234.742432 
	C690.601807,232.714218 690.302429,230.503372 692.437317,228.898544 
	C694.612305,230.458023 693.686768,232.409744 693.182739,234.569672 
z"/>
<path fill="#000000" opacity="1.000000" stroke="none" 
	d="
M288.228210,204.996307 
	C288.238007,209.653976 288.294891,213.813217 288.233887,217.970734 
	C288.191071,220.887054 288.995056,222.807297 292.416168,222.759827 
	C293.698883,222.742035 294.974091,223.492386 296.280884,223.635315 
	C299.247864,223.959763 301.155212,225.590775 300.794159,228.472168 
	C300.426575,231.405533 299.426910,234.764725 295.762787,235.081757 
	C284.989685,236.013901 274.187439,235.263351 263.406464,234.996201 
	C258.979889,234.886520 259.932465,230.945648 259.815796,228.077423 
	C259.703278,225.311768 260.411957,223.326935 263.733612,222.838699 
	C273.721680,221.370605 273.671448,221.281342 273.670837,211.125916 
	C273.670258,201.977280 273.734009,192.828354 273.824890,183.680115 
	C273.885559,177.574997 273.205414,176.644714 267.204224,176.358521 
	C262.980621,176.157089 259.528168,175.470505 259.722504,170.075729 
	C259.886200,165.531586 262.718719,162.854385 267.887939,162.685471 
	C276.817139,162.393692 285.750244,162.206711 294.676483,161.845963 
	C299.133667,161.665833 301.644531,163.773041 302.195953,168.009613 
	C302.756653,172.317749 300.865448,174.827896 296.337494,175.631165 
	C288.938721,176.943710 287.629822,178.996429 287.943634,186.545364 
	C288.192169,192.522858 288.142303,198.512772 288.228210,204.996307 
z"/>
<path fill="#000000" opacity="1.000000" stroke="none" 
	d="
M312.356506,131.515289 
	C283.228180,130.664230 254.477798,129.345978 227.242752,141.433762 
	C226.402176,137.953781 228.135574,137.460144 229.627426,136.750351 
	C234.524872,134.420258 239.421585,132.088196 244.299545,129.717697 
	C245.470612,129.148590 246.530823,129.441422 247.678009,129.751633 
	C248.775742,130.048477 250.154724,130.628784 251.026505,130.235092 
	C260.807709,125.817917 271.145782,129.159698 281.108002,127.868958 
	C286.833130,127.127190 292.713348,126.991310 298.301666,126.875526 
	C309.842255,126.636383 321.948608,126.214355 332.399170,133.118149 
	C333.862122,134.084595 335.789642,134.788559 334.854858,138.055527 
	C328.045746,133.622238 320.321411,133.018997 312.356506,131.515289 
z"/>
<path fill="#000000" opacity="1.000000" stroke="none" 
	d="
M315.584381,120.475159 
	C312.548676,120.210915 309.553223,120.905083 306.956055,117.612450 
	C312.872131,115.200233 318.385681,117.903030 323.745453,116.893471 
	C321.922028,120.266411 318.324738,118.789078 315.584381,120.475159 
z"/>
<path fill="#000000" opacity="1.000000" stroke="none" 
	d="
M110.424805,163.741669 
	C115.874512,163.748047 120.865692,163.757690 125.856094,163.699860 
	C139.168503,163.545563 147.918243,173.087967 146.897217,186.439743 
	C146.272751,194.605972 144.138062,201.294922 134.983597,203.802109 
	C130.708664,204.972916 131.980621,208.349884 133.974213,210.983093 
	C138.477325,216.930969 143.108978,222.781540 147.687744,228.672150 
	C148.787521,230.087036 150.577667,231.415070 149.590836,233.434708 
	C148.634323,235.392349 146.433212,234.928894 144.663284,235.098511 
	C143.177216,235.240921 141.657303,235.087646 140.183640,235.291412 
	C134.924088,236.018677 131.380920,233.946915 128.808548,229.295914 
	C125.918556,224.070679 122.539932,219.116318 119.392769,214.032440 
	C117.597374,211.132172 115.360481,208.663162 112.091995,207.504532 
	C105.465164,205.155472 100.145432,208.644775 100.065811,215.687927 
	C100.009720,220.649765 98.761940,225.522964 99.639450,230.590118 
	C100.222549,233.957184 97.573616,235.952515 94.399200,235.788437 
	C91.192978,235.622696 86.756462,236.444977 86.270424,231.379837 
	C85.443192,222.758759 85.878342,214.105896 86.277962,205.470947 
	C86.675194,196.887665 86.375595,188.313568 86.305084,179.731567 
	C86.229340,170.512543 87.545685,162.469696 100.588676,163.315659 
	C103.683525,163.516373 106.854958,163.020508 110.424805,163.741669 
M121.362854,194.057831 
	C124.033707,193.934708 126.609436,193.439865 129.179977,192.625504 
	C134.361359,190.983978 133.898285,186.874283 133.741226,182.851898 
	C133.581055,178.750259 130.768753,176.719864 127.309975,176.460281 
	C119.692520,175.888611 112.030243,175.649628 104.384636,176.334930 
	C102.101746,176.539551 100.525528,177.629318 100.428200,180.004242 
	C100.292435,183.316605 100.233032,186.650192 100.453072,189.953918 
	C100.673294,193.260437 102.492760,195.057129 106.041122,194.825287 
	C110.838379,194.511826 115.643257,194.315063 121.362854,194.057831 
z"/>
<path fill="#000000" opacity="1.000000" stroke="none" 
	d="
M75.213936,272.837677 
	C83.817787,274.235779 92.036926,275.569214 101.308067,277.073334 
	C97.981522,278.936371 95.339874,277.767670 92.894058,278.062317 
	C86.129028,278.877319 79.372162,277.674988 72.611015,277.623169 
	C63.396191,277.552612 57.730534,271.006805 53.764751,262.990051 
	C50.670868,256.735840 47.400639,250.610992 46.556194,243.524826 
	C46.354652,241.833588 45.905800,240.215942 47.253029,238.850586 
	C47.877880,238.217316 48.707203,238.051926 49.507381,238.622574 
	C51.003471,239.689514 50.245537,241.306274 50.556160,242.671814 
	C53.124252,253.961472 57.715584,264.014587 68.516685,269.883301 
	C70.545334,270.985565 72.721260,271.816742 75.213936,272.837677 
z"/>
<path fill="#000000" opacity="1.000000" stroke="none" 
	d="
M149.907761,117.775932 
	C151.082092,118.085480 151.933548,118.234886 152.608963,118.662399 
	C153.085449,118.964005 153.323044,119.642990 154.757629,121.770294 
	C129.670563,122.305016 105.874893,121.807030 82.052185,120.705025 
	C104.474167,118.042580 126.932541,116.587105 149.907761,117.775932 
z"/>
<path fill="#000000" opacity="1.000000" stroke="none" 
	d="
M104.183578,132.797699 
	C101.561760,130.447784 103.819862,130.001801 105.137032,130.030212 
	C113.039757,130.200684 120.900764,127.887703 128.815369,129.609985 
	C130.978897,130.080780 133.091400,129.766251 135.240387,129.543762 
	C137.111984,129.349991 138.782166,129.898346 140.736526,132.520859 
	C128.090179,133.161896 116.328186,133.313553 104.183578,132.797699 
z"/>
<path fill="#000000" opacity="1.000000" stroke="none" 
	d="
M45.809883,192.820984 
	C44.483913,182.790054 43.083561,173.034424 47.199512,163.078201 
	C50.099575,165.151566 49.799320,168.021912 49.383148,169.739700 
	C47.980587,175.528946 49.626644,181.281754 48.882252,186.969391 
	C48.594971,189.164429 49.482765,192.313400 45.809883,192.820984 
z"/>
<path fill="#000000" opacity="1.000000" stroke="none" 
	d="
M178.377853,258.581482 
	C179.374771,257.492188 180.180832,256.671234 181.729645,257.259003 
	C182.112076,260.254547 180.369064,261.566406 178.094528,262.604736 
	C176.615845,261.082825 177.696579,259.985382 178.377853,258.581482 
z"/>
</svg>